<svg width="50" height="50" viewBox="0 0 50 50" fill="none" xmlns="http://www.w3.org/2000/svg">
<rect width="50" height="50" rx="25" fill="#393333"/>
<path d="M23.425 13.0805C20.785 13.4355 18.365 14.6305 16.5 16.5005C14.615 18.3805 13.425 20.8005 13.075 23.4655C12.975 24.2355 12.975 25.7155 13.075 26.4855C13.255 27.8205 13.635 29.0905 14.23 30.2905L14.605 31.0555L13.805 33.4655C13.35 34.8305 13 35.9555 13 36.0605C13 36.2655 13.175 36.4505 13.37 36.4505C13.425 36.4505 14.535 36.1005 15.83 35.6755L18.185 34.8955L18.63 35.1755C19.28 35.5905 20.38 36.1105 21.135 36.3705C22.44 36.8155 23.59 37.0005 25.025 37.0005C26.46 37.0005 27.49 36.8355 28.81 36.3955C33.185 34.9455 36.32 31.1305 36.925 26.5355C37.025 25.7605 37.025 24.2405 36.925 23.4655C36.75 22.1305 36.36 20.8555 35.775 19.6755C33.98 16.0505 30.55 13.6055 26.535 13.0755C25.805 12.9805 24.13 12.9805 23.425 13.0805ZM21.475 23.9455C21.705 24.0455 21.98 24.3405 22.08 24.5805C22.12 24.6755 22.15 24.8605 22.15 25.0005C22.15 25.3105 22.065 25.5205 21.845 25.7755C21.62 26.0305 21.345 26.1505 20.975 26.1505C20.35 26.1505 19.835 25.6305 19.835 25.0005C19.835 24.3705 20.35 23.8505 20.975 23.8505C21.155 23.8505 21.355 23.8905 21.475 23.9455ZM25.44 23.9305C25.865 24.1055 26.15 24.5305 26.15 25.0005C26.15 25.6455 25.645 26.1505 25 26.1505C23.99 26.1505 23.47 24.9405 24.165 24.2055C24.485 23.8705 25.02 23.7555 25.44 23.9305ZM29.475 23.9455C29.705 24.0455 29.98 24.3405 30.08 24.5805C30.12 24.6755 30.15 24.8605 30.15 25.0005C30.15 25.8905 29.185 26.4405 28.415 26.0005C27.975 25.7505 27.73 25.2005 27.85 24.7505C27.995 24.2105 28.445 23.8505 28.975 23.8505C29.155 23.8505 29.355 23.8905 29.475 23.9455Z" fill="#FFCF5C"/>
</svg>
