<svg width="30" height="30" viewBox="0 0 30 30" fill="none" xmlns="http://www.w3.org/2000/svg">
<path d="M11.7 13.7L18.3 10.3M11.7 16.3L18.3 19.7M6 15C6 15.7956 6.31607 16.5587 6.87868 17.1213C7.44129 17.6839 8.20435 18 9 18C9.79565 18 10.5587 17.6839 11.1213 17.1213C11.6839 16.5587 12 15.7956 12 15C12 14.2044 11.6839 13.4413 11.1213 12.8787C10.5587 12.3161 9.79565 12 9 12C8.20435 12 7.44129 12.3161 6.87868 12.8787C6.31607 13.4413 6 14.2044 6 15ZM18 9C18 9.79565 18.3161 10.5587 18.8787 11.1213C19.4413 11.6839 20.2044 12 21 12C21.7956 12 22.5587 11.6839 23.1213 11.1213C23.6839 10.5587 24 9.79565 24 9C24 8.20435 23.6839 7.44129 23.1213 6.87868C22.5587 6.31607 21.7956 6 21 6C20.2044 6 19.4413 6.31607 18.8787 6.87868C18.3161 7.44129 18 8.20435 18 9ZM18 21C18 21.7956 18.3161 22.5587 18.8787 23.1213C19.4413 23.6839 20.2044 24 21 24C21.7956 24 22.5587 23.6839 23.1213 23.1213C23.6839 22.5587 24 21.7956 24 21C24 20.2044 23.6839 19.4413 23.1213 18.8787C22.5587 18.3161 21.7956 18 21 18C20.2044 18 19.4413 18.3161 18.8787 18.8787C18.3161 19.4413 18 20.2044 18 21Z" stroke="white" stroke-width="2" stroke-linecap="round" stroke-linejoin="round"/>
</svg>
